<?xml version="1.0" encoding="UTF-8"?>
<svg version="1.1" xmlns="http://www.w3.org/2000/svg" width="512" height="512">
<path d="M0 0 C0.85207031 0.32742187 1.70414063 0.65484375 2.58203125 0.9921875 C15.92626609 6.7501723 27.29787943 19.70733174 32.93359375 32.89453125 C35.59296393 40.638851 37.23862614 48.79879642 37 57 C37.54454834 57.16435547 38.08909668 57.32871094 38.65014648 57.49804688 C44.43673581 59.324414 49.71224961 61.64933724 55.0625 64.5 C55.88395508 64.93723389 56.70541016 65.37446777 57.55175781 65.82495117 C97.68353 87.62172323 127.11427901 124.11978509 140.5 167.75 C153.57449127 214.44461169 147 264.59151963 147 312 C34.14 312 -78.72 312 -195 312 C-195 194.45683453 -195 194.45683453 -190.25 176.875 C-189.98687012 175.84769775 -189.72374023 174.82039551 -189.45263672 173.76196289 C-183.04551784 149.45955873 -171.54159846 126.04396208 -155 107 C-154.29230469 106.18273437 -153.58460938 105.36546875 -152.85546875 104.5234375 C-134.52889254 83.78969279 -111.11317596 64.7466217 -84 57 C-84.04640625 56.45214844 -84.0928125 55.90429688 -84.140625 55.33984375 C-84.85949584 39.55035933 -78.33845528 25.9573645 -68.25 14.1875 C-51.06105812 -3.83107407 -22.99329169 -9.90581183 0 0 Z M-41 32 C-41.928125 32.598125 -42.85625 33.19625 -43.8125 33.8125 C-47.87949219 37.87949219 -50.6956352 42.39735923 -52 48 C-51.40316406 47.9292627 -50.80632812 47.85852539 -50.19140625 47.78564453 C-42.20731884 46.94185818 -34.26563443 46.84687156 -26.24804688 46.86962891 C-24.00383756 46.87499083 -21.75982829 46.86965126 -19.515625 46.86328125 C-11.63223771 46.86001934 -3.83869047 47.07095434 4 48 C2.5394 39.92808832 -2.43843055 35.02717055 -8.875 30.2265625 C-19.2148422 24.25834476 -31.32339721 25.62895427 -41 32 Z " fill="#000000" transform="translate(280,4)"/>
<path d="M0 0 C1.20247623 -0.00891569 2.40495247 -0.01783138 3.64386737 -0.02701724 C5.62023911 -0.02646415 5.62023911 -0.02646415 7.63653755 -0.02589989 C9.05322265 -0.0325014 10.46990401 -0.03995343 11.88658059 -0.04818285 C15.77987342 -0.06819182 19.67310458 -0.0756514 23.56644154 -0.08096147 C27.76575202 -0.08877703 31.96501389 -0.10793328 36.16429329 -0.12538719 C46.30695822 -0.1648931 56.44962708 -0.18504711 66.59234971 -0.20284277 C71.37215858 -0.21161389 76.15196303 -0.22234626 80.93176842 -0.23282051 C96.82763117 -0.26684554 112.72349119 -0.29583083 128.61938477 -0.31031799 C132.74352077 -0.31413761 136.86765676 -0.3179783 140.99179268 -0.32188988 C142.52929258 -0.3233411 142.52929258 -0.3233411 144.09785308 -0.32482164 C160.69034672 -0.3414109 177.28255146 -0.39206506 193.87491904 -0.45705123 C210.92139261 -0.52326985 227.96771958 -0.55922262 245.0143224 -0.56560647 C254.58071375 -0.56992996 264.14668403 -0.58732719 273.71294975 -0.63852882 C281.86287026 -0.68204954 290.01226745 -0.69799218 298.16229098 -0.67859526 C302.31638987 -0.66953535 306.46941033 -0.6731192 310.62335968 -0.71211815 C342.44802679 -0.9944443 342.44802679 -0.9944443 354.03866768 8.26844215 C355.45832486 9.31016107 355.45832486 9.31016107 356.90666199 10.3729248 C359.39118937 12.23595249 361.70866812 14.21647615 364.03866768 16.26844215 C364.85722237 16.9439109 365.67577705 17.61937965 366.51913643 18.31531715 C384.82788248 33.87065489 396.88865071 57.20345891 399.78866768 81.0379734 C401.11434867 98.1682575 401.11434867 98.1682575 398.47616768 103.45594215 C394.74442685 107.76179695 391.63470305 109.96518813 385.97415543 110.62642097 C382.07628598 110.76160165 378.18973971 110.7637014 374.29086494 110.72254372 C372.79231484 110.72141432 371.29376252 110.7220509 369.7952137 110.72431374 C365.74184285 110.72545824 361.68894849 110.70199211 357.63568807 110.67401791 C353.39430187 110.64895999 349.15290395 110.6466588 344.91145515 110.64191628 C336.88632509 110.62949936 328.86141381 110.59669524 320.83637995 110.55651832 C311.6973656 110.51176053 302.55834064 110.48980351 293.41924393 110.46973658 C274.62559463 110.4279614 255.83214876 110.35763443 237.03866768 110.26844215 C236.91146843 110.94712852 236.78426918 111.6258149 236.65321541 112.32506752 C236.48094933 113.21960136 236.30868324 114.11413521 236.13119698 115.03577614 C235.96274773 115.92071251 235.79429848 116.80564888 235.62074471 117.7174015 C233.46034436 127.18568293 227.44068666 136.13921615 221.03866768 143.26844215 C220.31034737 144.08957497 219.58202705 144.91070778 218.83163643 145.7567234 C207.63992211 157.67165028 192.07239108 166.29378467 175.49008369 167.44544411 C152.7137952 167.96285278 133.33969476 164.39452682 116.03866768 148.26844215 C106.9393953 139.53496967 100.55902978 129.56603071 96.92465401 117.51966286 C96.56986473 116.34901787 96.21507545 115.17837288 95.84953499 113.9722538 C95.58194878 113.07999596 95.31436256 112.18773811 95.03866768 111.26844215 C94.26598486 111.2660538 93.49330204 111.26366545 92.69720459 111.26120472 C73.89327097 111.20206026 55.08946868 111.12651372 36.28567505 111.03272724 C27.19228334 110.98776796 18.09893081 110.94835359 9.00546455 110.92200661 C1.0792939 110.89902761 -6.84675278 110.86563068 -14.77282512 110.81974059 C-18.96935799 110.79580703 -23.16576807 110.77707914 -27.36236763 110.77082825 C-31.31374467 110.76477798 -35.26480755 110.74478038 -39.21606827 110.71416664 C-40.6648274 110.70538547 -42.11362759 110.70166401 -43.56241226 110.70343399 C-45.54406478 110.70509033 -47.52570331 110.68659822 -49.50726128 110.66716957 C-50.61525644 110.66256061 -51.72325161 110.65795164 -52.86482239 110.65320301 C-57.75490222 110.0455798 -60.98684303 108.34828164 -64.27383232 104.70594215 C-69.49178412 97.16890067 -67.69463944 84.29708453 -66.31289482 75.50281715 C-62.22876624 53.89796343 -51.35934705 35.68842267 -35.96133232 20.26844215 C-35.17113701 19.46664528 -34.3809417 18.6648484 -33.56680107 17.83875465 C-24.92932578 9.55938364 -12.35201821 0.04256741 0 0 Z " fill="#000000" transform="translate(89.96133232116699,344.73155784606934)"/>
</svg>
