<svg width="364" height="60" viewBox="0 0 364 60" fill="none" xmlns="http://www.w3.org/2000/svg">
<path d="M16.3034 3.8147e-06C7.17929 3.8147e-06 0 6.77055 0 15.1136C0 21.8505 4.93048 27.5495 11.5924 29.5016C4.93135 31.4554 0.171578 37.1544 0.171578 43.8913C0.171578 52.236 7.14619 59 16.2738 59C20.8794 59 24.1333 57.2725 27.6154 54.4923L55 29.4877L27.6154 4.51178C24.1333 1.72912 20.9056 3.8147e-06 16.3034 3.8147e-06Z" fill="#5A96F6"/>
<path d="M14.7841 46.7277V37.6708H16.3409C16.8636 37.2542 17.3523 36.667 17.8068 35.9095C18.2614 35.1519 18.6477 34.114 18.9659 32.7958C19.2841 31.4776 19.5038 29.7731 19.625 27.6822L20.2386 17.8413H35.1136V37.6708H37.7045V46.7049H33.6591V41.114H18.8295V46.7277H14.7841ZM21.25 37.6708H31.0682V21.3754H24.0341L23.6705 27.6822C23.572 29.2655 23.4129 30.6822 23.1932 31.9322C22.9735 33.1822 22.697 34.2845 22.3636 35.239C22.0303 36.186 21.6591 36.9966 21.25 37.6708ZM41.1392 41.114V17.8413H56.2756V21.3754H45.3551V27.6936H55.4915V31.2276H45.3551V37.5799H56.3665V41.114H41.1392ZM59.0653 41.114V37.614L59.7244 37.5799C60.6184 37.5269 61.3267 37.2049 61.8494 36.614C62.3797 36.0231 62.7699 35.0723 63.0199 33.7617C63.2775 32.4511 63.4479 30.6936 63.5312 28.489L63.9176 17.8413H79.1676V41.114H75.0426V21.3072H67.8494L67.4858 29.7958C67.3797 32.3413 67.0994 34.4511 66.6449 36.1254C66.1979 37.7996 65.4631 39.0496 64.4403 39.8754C63.4252 40.7011 62.0123 41.114 60.2017 41.114H59.0653ZM104.56 29.4776C104.56 31.9852 104.09 34.133 103.151 35.9208C102.219 37.7011 100.946 39.0648 99.3324 40.0117C97.7263 40.9587 95.9044 41.4322 93.8665 41.4322C91.8286 41.4322 90.0028 40.9587 88.3892 40.0117C86.7831 39.0572 85.5104 37.6898 84.571 35.9095C83.6392 34.1216 83.1733 31.9776 83.1733 29.4776C83.1733 26.9701 83.6392 24.8261 84.571 23.0458C85.5104 21.258 86.7831 19.8905 88.3892 18.9436C90.0028 17.9966 91.8286 17.5231 93.8665 17.5231C95.9044 17.5231 97.7263 17.9966 99.3324 18.9436C100.946 19.8905 102.219 21.258 103.151 23.0458C104.09 24.8261 104.56 26.9701 104.56 29.4776ZM100.321 29.4776C100.321 27.7125 100.045 26.2239 99.4915 25.0117C98.946 23.792 98.1884 22.8716 97.2188 22.2504C96.2491 21.6216 95.1316 21.3072 93.8665 21.3072C92.6013 21.3072 91.4839 21.6216 90.5142 22.2504C89.5445 22.8716 88.7831 23.792 88.2301 25.0117C87.6847 26.2239 87.4119 27.7125 87.4119 29.4776C87.4119 31.2428 87.6847 32.7352 88.2301 33.9549C88.7831 35.167 89.5445 36.0875 90.5142 36.7163C91.4839 37.3375 92.6013 37.6481 93.8665 37.6481C95.1316 37.6481 96.2491 37.3375 97.2188 36.7163C98.1884 36.0875 98.946 35.167 99.4915 33.9549C100.045 32.7352 100.321 31.2428 100.321 29.4776ZM116.483 41.114V17.8413H125.392C127.074 17.8413 128.472 18.1064 129.585 18.6367C130.706 19.1595 131.544 19.8754 132.097 20.7845C132.657 21.6936 132.938 22.7239 132.938 23.8754C132.938 24.8223 132.756 25.633 132.392 26.3072C132.028 26.9739 131.54 27.5155 130.926 27.9322C130.312 28.3489 129.627 28.6481 128.869 28.8299V29.0572C129.695 29.1026 130.487 29.3564 131.244 29.8186C132.009 30.2731 132.634 30.917 133.119 31.7504C133.604 32.5837 133.847 33.5913 133.847 34.7731C133.847 35.9776 133.555 37.061 132.972 38.0231C132.388 38.9776 131.509 39.7314 130.335 40.2845C129.161 40.8375 127.684 41.114 125.903 41.114H116.483ZM120.699 37.5913H125.233C126.763 37.5913 127.866 37.2996 128.54 36.7163C129.222 36.1254 129.562 35.3678 129.562 34.4436C129.562 33.7542 129.392 33.133 129.051 32.5799C128.71 32.0193 128.225 31.5799 127.597 31.2617C126.968 30.936 126.218 30.7731 125.347 30.7731H120.699V37.5913ZM120.699 27.739H124.869C125.597 27.739 126.252 27.6064 126.835 27.3413C127.419 27.0686 127.877 26.686 128.21 26.1936C128.551 25.6936 128.722 25.1026 128.722 24.4208C128.722 23.5193 128.403 22.7769 127.767 22.1936C127.138 21.6102 126.203 21.3186 124.96 21.3186H120.699V27.739ZM153.577 41.4322C151.94 41.4322 150.486 41.1519 149.213 40.5913C147.948 40.0307 146.948 39.2504 146.213 38.2504C145.478 37.2504 145.088 36.0951 145.043 34.7845H149.315C149.353 35.4133 149.562 35.9625 149.94 36.4322C150.319 36.8943 150.823 37.2542 151.452 37.5117C152.08 37.7693 152.785 37.8981 153.565 37.8981C154.399 37.8981 155.137 37.7542 155.781 37.4663C156.425 37.1708 156.929 36.7617 157.293 36.239C157.656 35.7163 157.834 35.114 157.827 34.4322C157.834 33.7276 157.652 33.1064 157.281 32.5686C156.91 32.0307 156.372 31.6102 155.668 31.3072C154.971 31.0042 154.13 30.8526 153.145 30.8526H151.088V27.6026H153.145C153.955 27.6026 154.664 27.4625 155.27 27.1822C155.884 26.9019 156.365 26.508 156.713 26.0004C157.062 25.4852 157.232 24.8905 157.224 24.2163C157.232 23.5572 157.084 22.9852 156.781 22.5004C156.486 22.008 156.065 21.6254 155.52 21.3526C154.982 21.0799 154.349 20.9436 153.622 20.9436C152.91 20.9436 152.251 21.0723 151.645 21.3299C151.039 21.5875 150.55 21.9549 150.179 22.4322C149.808 22.9019 149.611 23.4625 149.588 24.114H145.531C145.562 22.811 145.937 21.667 146.656 20.6822C147.384 19.6898 148.353 18.917 149.565 18.364C150.777 17.8034 152.137 17.5231 153.645 17.5231C155.198 17.5231 156.546 17.8148 157.69 18.3981C158.842 18.9739 159.732 19.7504 160.361 20.7276C160.99 21.7049 161.304 22.7845 161.304 23.9663C161.312 25.2769 160.925 26.3754 160.145 27.2617C159.372 28.1481 158.357 28.7276 157.099 29.0004V29.1822C158.736 29.4095 159.99 30.0155 160.861 31.0004C161.74 31.9776 162.175 33.1936 162.168 34.6481C162.168 35.9511 161.796 37.1178 161.054 38.1481C160.319 39.1708 159.304 39.9739 158.009 40.5572C156.721 41.1405 155.243 41.4322 153.577 41.4322ZM164.784 46.7277V37.6708H166.341C166.864 37.2542 167.352 36.667 167.807 35.9095C168.261 35.1519 168.648 34.114 168.966 32.7958C169.284 31.4776 169.504 29.7731 169.625 27.6822L170.239 17.8413H185.114V37.6708H187.705V46.7049H183.659V41.114H168.83V46.7277H164.784ZM171.25 37.6708H181.068V21.3754H174.034L173.67 27.6822C173.572 29.2655 173.413 30.6822 173.193 31.9322C172.973 33.1822 172.697 34.2845 172.364 35.239C172.03 36.186 171.659 36.9966 171.25 37.6708ZM211.935 29.4776C211.935 31.9852 211.465 34.133 210.526 35.9208C209.594 37.7011 208.321 39.0648 206.707 40.0117C205.101 40.9587 203.279 41.4322 201.241 41.4322C199.204 41.4322 197.378 40.9587 195.764 40.0117C194.158 39.0572 192.885 37.6898 191.946 35.9095C191.014 34.1216 190.548 31.9776 190.548 29.4776C190.548 26.9701 191.014 24.8261 191.946 23.0458C192.885 21.258 194.158 19.8905 195.764 18.9436C197.378 17.9966 199.204 17.5231 201.241 17.5231C203.279 17.5231 205.101 17.9966 206.707 18.9436C208.321 19.8905 209.594 21.258 210.526 23.0458C211.465 24.8261 211.935 26.9701 211.935 29.4776ZM207.696 29.4776C207.696 27.7125 207.42 26.2239 206.866 25.0117C206.321 23.792 205.563 22.8716 204.594 22.2504C203.624 21.6216 202.507 21.3072 201.241 21.3072C199.976 21.3072 198.859 21.6216 197.889 22.2504C196.92 22.8716 196.158 23.792 195.605 25.0117C195.06 26.2239 194.787 27.7125 194.787 29.4776C194.787 31.2428 195.06 32.7352 195.605 33.9549C196.158 35.167 196.92 36.0875 197.889 36.7163C198.859 37.3375 199.976 37.6481 201.241 37.6481C202.507 37.6481 203.624 37.3375 204.594 36.7163C205.563 36.0875 206.321 35.167 206.866 33.9549C207.42 32.7352 207.696 31.2428 207.696 29.4776ZM215.92 41.114V17.8413H224.648C226.436 17.8413 227.936 18.1746 229.148 18.8413C230.367 19.508 231.288 20.4246 231.909 21.5913C232.538 22.7504 232.852 24.0686 232.852 25.5458C232.852 27.0383 232.538 28.364 231.909 29.5231C231.28 30.6822 230.352 31.5951 229.125 32.2617C227.898 32.9208 226.386 33.2504 224.591 33.2504H218.807V29.7845H224.023C225.068 29.7845 225.924 29.6026 226.591 29.239C227.258 28.8754 227.75 28.3754 228.068 27.739C228.394 27.1026 228.557 26.3716 228.557 25.5458C228.557 24.7201 228.394 23.9928 228.068 23.364C227.75 22.7352 227.254 22.2466 226.58 21.8981C225.913 21.542 225.053 21.364 224 21.364H220.136V41.114H215.92ZM257.31 29.4776C257.31 31.9852 256.84 34.133 255.901 35.9208C254.969 37.7011 253.696 39.0648 252.082 40.0117C250.476 40.9587 248.654 41.4322 246.616 41.4322C244.579 41.4322 242.753 40.9587 241.139 40.0117C239.533 39.0572 238.26 37.6898 237.321 35.9095C236.389 34.1216 235.923 31.9776 235.923 29.4776C235.923 26.9701 236.389 24.8261 237.321 23.0458C238.26 21.258 239.533 19.8905 241.139 18.9436C242.753 17.9966 244.579 17.5231 246.616 17.5231C248.654 17.5231 250.476 17.9966 252.082 18.9436C253.696 19.8905 254.969 21.258 255.901 23.0458C256.84 24.8261 257.31 26.9701 257.31 29.4776ZM253.071 29.4776C253.071 27.7125 252.795 26.2239 252.241 25.0117C251.696 23.792 250.938 22.8716 249.969 22.2504C248.999 21.6216 247.882 21.3072 246.616 21.3072C245.351 21.3072 244.234 21.6216 243.264 22.2504C242.295 22.8716 241.533 23.792 240.98 25.0117C240.435 26.2239 240.162 27.7125 240.162 29.4776C240.162 31.2428 240.435 32.7352 240.98 33.9549C241.533 35.167 242.295 36.0875 243.264 36.7163C244.234 37.3375 245.351 37.6481 246.616 37.6481C247.882 37.6481 248.999 37.3375 249.969 36.7163C250.938 36.0875 251.696 35.167 252.241 33.9549C252.795 32.7352 253.071 31.2428 253.071 29.4776ZM261.295 41.114V17.8413H270.205C271.886 17.8413 273.284 18.1064 274.398 18.6367C275.519 19.1595 276.356 19.8754 276.909 20.7845C277.47 21.6936 277.75 22.7239 277.75 23.8754C277.75 24.8223 277.568 25.633 277.205 26.3072C276.841 26.9739 276.352 27.5155 275.739 27.9322C275.125 28.3489 274.439 28.6481 273.682 28.8299V29.0572C274.508 29.1026 275.299 29.3564 276.057 29.8186C276.822 30.2731 277.447 30.917 277.932 31.7504C278.417 32.5837 278.659 33.5913 278.659 34.7731C278.659 35.9776 278.367 37.061 277.784 38.0231C277.201 38.9776 276.322 39.7314 275.148 40.2845C273.973 40.8375 272.496 41.114 270.716 41.114H261.295ZM265.511 37.5913H270.045C271.576 37.5913 272.678 37.2996 273.352 36.7163C274.034 36.1254 274.375 35.3678 274.375 34.4436C274.375 33.7542 274.205 33.133 273.864 32.5799C273.523 32.0193 273.038 31.5799 272.409 31.2617C271.78 30.936 271.03 30.7731 270.159 30.7731H265.511V37.5913ZM265.511 27.739H269.682C270.409 27.739 271.064 27.6064 271.648 27.3413C272.231 27.0686 272.689 26.686 273.023 26.1936C273.364 25.6936 273.534 25.1026 273.534 24.4208C273.534 23.5193 273.216 22.7769 272.58 22.1936C271.951 21.6102 271.015 21.3186 269.773 21.3186H265.511V27.739ZM285.179 26.8299H291.088C292.868 26.8299 294.395 27.1216 295.668 27.7049C296.948 28.2807 297.929 29.0951 298.611 30.1481C299.293 31.2011 299.634 32.4398 299.634 33.864C299.634 35.2958 299.293 36.5572 298.611 37.6481C297.929 38.7314 296.948 39.5799 295.668 40.1936C294.395 40.8072 292.868 41.114 291.088 41.114H282.372V17.8413H286.599V37.6595H291.088C292.027 37.6595 292.823 37.4814 293.474 37.1254C294.126 36.7693 294.618 36.2996 294.952 35.7163C295.293 35.133 295.463 34.5004 295.463 33.8186C295.463 32.8337 295.084 31.9966 294.327 31.3072C293.577 30.6102 292.497 30.2617 291.088 30.2617H285.179V26.8299ZM303.733 41.114V17.8413H318.869V21.3754H307.949V27.6936H318.085V31.2276H307.949V37.5799H318.96V41.114H303.733Z" fill="black"/>
</svg>
