<svg width="321" height="59" viewBox="0 0 321 59" fill="none" xmlns="http://www.w3.org/2000/svg">
<path d="M16.3034 0C7.17929 0 0 6.77055 0 15.1136C0 21.8505 4.93048 27.5495 11.5924 29.5016C4.93135 31.4554 0.171578 37.1544 0.171578 43.8913C0.171578 52.236 7.14619 59 16.2738 59C20.8794 59 24.1333 57.2725 27.6154 54.4923L55 29.4877L27.6154 4.51178C24.1333 1.72912 20.9056 0 16.3034 0Z" fill="#5A96F6"/>
<path d="M14.7841 46.6136V37.5568H16.3409C16.8636 37.1402 17.3523 36.553 17.8068 35.7955C18.2614 35.0379 18.6477 34 18.9659 32.6818C19.2841 31.3636 19.5038 29.6591 19.625 27.5682L20.2386 17.7273H35.1136V37.5568H37.7045V46.5909H33.6591V41H18.8295V46.6136H14.7841ZM21.25 37.5568H31.0682V21.2614H24.0341L23.6705 27.5682C23.572 29.1515 23.4129 30.5682 23.1932 31.8182C22.9735 33.0682 22.697 34.1705 22.3636 35.125C22.0303 36.072 21.6591 36.8826 21.25 37.5568ZM41.1392 41V17.7273H56.2756V21.2614H45.3551V27.5795H55.4915V31.1136H45.3551V37.4659H56.3665V41H41.1392ZM59.0653 41V37.5L59.7244 37.4659C60.6184 37.4129 61.3267 37.0909 61.8494 36.5C62.3797 35.9091 62.7699 34.9583 63.0199 33.6477C63.2775 32.3371 63.4479 30.5795 63.5312 28.375L63.9176 17.7273H79.1676V41H75.0426V21.1932H67.8494L67.4858 29.6818C67.3797 32.2273 67.0994 34.3371 66.6449 36.0114C66.1979 37.6856 65.4631 38.9356 64.4403 39.7614C63.4252 40.5871 62.0123 41 60.2017 41H59.0653ZM104.56 29.3636C104.56 31.8712 104.09 34.0189 103.151 35.8068C102.219 37.5871 100.946 38.9508 99.3324 39.8977C97.7263 40.8447 95.9044 41.3182 93.8665 41.3182C91.8286 41.3182 90.0028 40.8447 88.3892 39.8977C86.7831 38.9432 85.5104 37.5758 84.571 35.7955C83.6392 34.0076 83.1733 31.8636 83.1733 29.3636C83.1733 26.8561 83.6392 24.7121 84.571 22.9318C85.5104 21.1439 86.7831 19.7765 88.3892 18.8295C90.0028 17.8826 91.8286 17.4091 93.8665 17.4091C95.9044 17.4091 97.7263 17.8826 99.3324 18.8295C100.946 19.7765 102.219 21.1439 103.151 22.9318C104.09 24.7121 104.56 26.8561 104.56 29.3636ZM100.321 29.3636C100.321 27.5985 100.045 26.1098 99.4915 24.8977C98.946 23.678 98.1884 22.7576 97.2188 22.1364C96.2491 21.5076 95.1316 21.1932 93.8665 21.1932C92.6013 21.1932 91.4839 21.5076 90.5142 22.1364C89.5445 22.7576 88.7831 23.678 88.2301 24.8977C87.6847 26.1098 87.4119 27.5985 87.4119 29.3636C87.4119 31.1288 87.6847 32.6212 88.2301 33.8409C88.7831 35.053 89.5445 35.9735 90.5142 36.6023C91.4839 37.2235 92.6013 37.5341 93.8665 37.5341C95.1316 37.5341 96.2491 37.2235 97.2188 36.6023C98.1884 35.9735 98.946 35.053 99.4915 33.8409C100.045 32.6212 100.321 31.1288 100.321 29.3636ZM116.483 41V17.7273H125.392C127.074 17.7273 128.472 17.9924 129.585 18.5227C130.706 19.0455 131.544 19.7614 132.097 20.6705C132.657 21.5795 132.938 22.6098 132.938 23.7614C132.938 24.7083 132.756 25.5189 132.392 26.1932C132.028 26.8598 131.54 27.4015 130.926 27.8182C130.312 28.2348 129.627 28.5341 128.869 28.7159V28.9432C129.695 28.9886 130.487 29.2424 131.244 29.7045C132.009 30.1591 132.634 30.803 133.119 31.6364C133.604 32.4697 133.847 33.4773 133.847 34.6591C133.847 35.8636 133.555 36.947 132.972 37.9091C132.388 38.8636 131.509 39.6174 130.335 40.1705C129.161 40.7235 127.684 41 125.903 41H116.483ZM120.699 37.4773H125.233C126.763 37.4773 127.866 37.1856 128.54 36.6023C129.222 36.0114 129.562 35.2538 129.562 34.3295C129.562 33.6402 129.392 33.0189 129.051 32.4659C128.71 31.9053 128.225 31.4659 127.597 31.1477C126.968 30.822 126.218 30.6591 125.347 30.6591H120.699V37.4773ZM120.699 27.625H124.869C125.597 27.625 126.252 27.4924 126.835 27.2273C127.419 26.9545 127.877 26.572 128.21 26.0795C128.551 25.5795 128.722 24.9886 128.722 24.3068C128.722 23.4053 128.403 22.6629 127.767 22.0795C127.138 21.4962 126.203 21.2045 124.96 21.2045H120.699V27.625ZM153.577 41.3182C151.94 41.3182 150.486 41.0379 149.213 40.4773C147.948 39.9167 146.948 39.1364 146.213 38.1364C145.478 37.1364 145.088 35.9811 145.043 34.6705H149.315C149.353 35.2992 149.562 35.8485 149.94 36.3182C150.319 36.7803 150.823 37.1402 151.452 37.3977C152.08 37.6553 152.785 37.7841 153.565 37.7841C154.399 37.7841 155.137 37.6402 155.781 37.3523C156.425 37.0568 156.929 36.6477 157.293 36.125C157.656 35.6023 157.834 35 157.827 34.3182C157.834 33.6136 157.652 32.9924 157.281 32.4545C156.91 31.9167 156.372 31.4962 155.668 31.1932C154.971 30.8902 154.13 30.7386 153.145 30.7386H151.088V27.4886H153.145C153.955 27.4886 154.664 27.3485 155.27 27.0682C155.884 26.7879 156.365 26.3939 156.713 25.8864C157.062 25.3712 157.232 24.7765 157.224 24.1023C157.232 23.4432 157.084 22.8712 156.781 22.3864C156.486 21.8939 156.065 21.5114 155.52 21.2386C154.982 20.9659 154.349 20.8295 153.622 20.8295C152.91 20.8295 152.251 20.9583 151.645 21.2159C151.039 21.4735 150.55 21.8409 150.179 22.3182C149.808 22.7879 149.611 23.3485 149.588 24H145.531C145.562 22.697 145.937 21.553 146.656 20.5682C147.384 19.5758 148.353 18.803 149.565 18.25C150.777 17.6894 152.137 17.4091 153.645 17.4091C155.198 17.4091 156.546 17.7008 157.69 18.2841C158.842 18.8598 159.732 19.6364 160.361 20.6136C160.99 21.5909 161.304 22.6705 161.304 23.8523C161.312 25.1629 160.925 26.2614 160.145 27.1477C159.372 28.0341 158.357 28.6136 157.099 28.8864V29.0682C158.736 29.2955 159.99 29.9015 160.861 30.8864C161.74 31.8636 162.175 33.0795 162.168 34.5341C162.168 35.8371 161.796 37.0038 161.054 38.0341C160.319 39.0568 159.304 39.8598 158.009 40.4432C156.721 41.0265 155.243 41.3182 153.577 41.3182ZM164.784 46.6136V37.5568H166.341C166.864 37.1402 167.352 36.553 167.807 35.7955C168.261 35.0379 168.648 34 168.966 32.6818C169.284 31.3636 169.504 29.6591 169.625 27.5682L170.239 17.7273H185.114V37.5568H187.705V46.5909H183.659V41H168.83V46.6136H164.784ZM171.25 37.5568H181.068V21.2614H174.034L173.67 27.5682C173.572 29.1515 173.413 30.5682 173.193 31.8182C172.973 33.0682 172.697 34.1705 172.364 35.125C172.03 36.072 171.659 36.8826 171.25 37.5568ZM211.935 29.3636C211.935 31.8712 211.465 34.0189 210.526 35.8068C209.594 37.5871 208.321 38.9508 206.707 39.8977C205.101 40.8447 203.279 41.3182 201.241 41.3182C199.204 41.3182 197.378 40.8447 195.764 39.8977C194.158 38.9432 192.885 37.5758 191.946 35.7955C191.014 34.0076 190.548 31.8636 190.548 29.3636C190.548 26.8561 191.014 24.7121 191.946 22.9318C192.885 21.1439 194.158 19.7765 195.764 18.8295C197.378 17.8826 199.204 17.4091 201.241 17.4091C203.279 17.4091 205.101 17.8826 206.707 18.8295C208.321 19.7765 209.594 21.1439 210.526 22.9318C211.465 24.7121 211.935 26.8561 211.935 29.3636ZM207.696 29.3636C207.696 27.5985 207.42 26.1098 206.866 24.8977C206.321 23.678 205.563 22.7576 204.594 22.1364C203.624 21.5076 202.507 21.1932 201.241 21.1932C199.976 21.1932 198.859 21.5076 197.889 22.1364C196.92 22.7576 196.158 23.678 195.605 24.8977C195.06 26.1098 194.787 27.5985 194.787 29.3636C194.787 31.1288 195.06 32.6212 195.605 33.8409C196.158 35.053 196.92 35.9735 197.889 36.6023C198.859 37.2235 199.976 37.5341 201.241 37.5341C202.507 37.5341 203.624 37.2235 204.594 36.6023C205.563 35.9735 206.321 35.053 206.866 33.8409C207.42 32.6212 207.696 31.1288 207.696 29.3636ZM215.92 41V17.7273H224.648C226.436 17.7273 227.936 18.0606 229.148 18.7273C230.367 19.3939 231.288 20.3106 231.909 21.4773C232.538 22.6364 232.852 23.9545 232.852 25.4318C232.852 26.9242 232.538 28.25 231.909 29.4091C231.28 30.5682 230.352 31.4811 229.125 32.1477C227.898 32.8068 226.386 33.1364 224.591 33.1364H218.807V29.6705H224.023C225.068 29.6705 225.924 29.4886 226.591 29.125C227.258 28.7614 227.75 28.2614 228.068 27.625C228.394 26.9886 228.557 26.2576 228.557 25.4318C228.557 24.6061 228.394 23.8788 228.068 23.25C227.75 22.6212 227.254 22.1326 226.58 21.7841C225.913 21.428 225.053 21.25 224 21.25H220.136V41H215.92ZM257.31 29.3636C257.31 31.8712 256.84 34.0189 255.901 35.8068C254.969 37.5871 253.696 38.9508 252.082 39.8977C250.476 40.8447 248.654 41.3182 246.616 41.3182C244.579 41.3182 242.753 40.8447 241.139 39.8977C239.533 38.9432 238.26 37.5758 237.321 35.7955C236.389 34.0076 235.923 31.8636 235.923 29.3636C235.923 26.8561 236.389 24.7121 237.321 22.9318C238.26 21.1439 239.533 19.7765 241.139 18.8295C242.753 17.8826 244.579 17.4091 246.616 17.4091C248.654 17.4091 250.476 17.8826 252.082 18.8295C253.696 19.7765 254.969 21.1439 255.901 22.9318C256.84 24.7121 257.31 26.8561 257.31 29.3636ZM253.071 29.3636C253.071 27.5985 252.795 26.1098 252.241 24.8977C251.696 23.678 250.938 22.7576 249.969 22.1364C248.999 21.5076 247.882 21.1932 246.616 21.1932C245.351 21.1932 244.234 21.5076 243.264 22.1364C242.295 22.7576 241.533 23.678 240.98 24.8977C240.435 26.1098 240.162 27.5985 240.162 29.3636C240.162 31.1288 240.435 32.6212 240.98 33.8409C241.533 35.053 242.295 35.9735 243.264 36.6023C244.234 37.2235 245.351 37.5341 246.616 37.5341C247.882 37.5341 248.999 37.2235 249.969 36.6023C250.938 35.9735 251.696 35.053 252.241 33.8409C252.795 32.6212 253.071 31.1288 253.071 29.3636ZM261.295 41V17.7273H270.205C271.886 17.7273 273.284 17.9924 274.398 18.5227C275.519 19.0455 276.356 19.7614 276.909 20.6705C277.47 21.5795 277.75 22.6098 277.75 23.7614C277.75 24.7083 277.568 25.5189 277.205 26.1932C276.841 26.8598 276.352 27.4015 275.739 27.8182C275.125 28.2348 274.439 28.5341 273.682 28.7159V28.9432C274.508 28.9886 275.299 29.2424 276.057 29.7045C276.822 30.1591 277.447 30.803 277.932 31.6364C278.417 32.4697 278.659 33.4773 278.659 34.6591C278.659 35.8636 278.367 36.947 277.784 37.9091C277.201 38.8636 276.322 39.6174 275.148 40.1705C273.973 40.7235 272.496 41 270.716 41H261.295ZM265.511 37.4773H270.045C271.576 37.4773 272.678 37.1856 273.352 36.6023C274.034 36.0114 274.375 35.2538 274.375 34.3295C274.375 33.6402 274.205 33.0189 273.864 32.4659C273.523 31.9053 273.038 31.4659 272.409 31.1477C271.78 30.822 271.03 30.6591 270.159 30.6591H265.511V37.4773ZM265.511 27.625H269.682C270.409 27.625 271.064 27.4924 271.648 27.2273C272.231 26.9545 272.689 26.572 273.023 26.0795C273.364 25.5795 273.534 24.9886 273.534 24.3068C273.534 23.4053 273.216 22.6629 272.58 22.0795C271.951 21.4962 271.015 21.2045 269.773 21.2045H265.511V27.625ZM285.179 26.7159H291.088C292.868 26.7159 294.395 27.0076 295.668 27.5909C296.948 28.1667 297.929 28.9811 298.611 30.0341C299.293 31.0871 299.634 32.3258 299.634 33.75C299.634 35.1818 299.293 36.4432 298.611 37.5341C297.929 38.6174 296.948 39.4659 295.668 40.0795C294.395 40.6932 292.868 41 291.088 41H282.372V17.7273H286.599V37.5455H291.088C292.027 37.5455 292.823 37.3674 293.474 37.0114C294.126 36.6553 294.618 36.1856 294.952 35.6023C295.293 35.0189 295.463 34.3864 295.463 33.7045C295.463 32.7197 295.084 31.8826 294.327 31.1932C293.577 30.4962 292.497 30.1477 291.088 30.1477H285.179V26.7159ZM303.733 41V17.7273H318.869V21.2614H307.949V27.5795H318.085V31.1136H307.949V37.4659H318.96V41H303.733Z" fill="black"/>
</svg>
