<?xml version="1.0" encoding="UTF-8"?>
<svg version="1.1" xmlns="http://www.w3.org/2000/svg" width="1024" height="1024">
<path d="M0 0 C1.20269531 0.01885254 1.20269531 0.01885254 2.4296875 0.03808594 C73.24179827 1.46013242 139.83890597 35.72694447 192 82 C193.41615551 83.22975555 194.83273869 84.45901902 196.25 85.6875 C197.50169795 86.78974148 198.75162032 87.89400171 200 89 C200.78761719 89.69480469 201.57523438 90.38960938 202.38671875 91.10546875 C207.37700255 95.54552217 212.15822372 100.12354145 216.84765625 104.87890625 C218.85853052 106.86058452 220.9221932 108.72258714 223.0625 110.5625 C229.24434068 115.8857517 234.7763418 121.68478155 240.0859375 127.8671875 C242.30451828 130.33932036 244.63706669 132.66562178 247 135 C250.54918157 138.5117655 253.91968457 142.09008901 257.1640625 145.8828125 C259.3520617 148.40599455 261.61293113 150.85554519 263.875 153.3125 C267.94540056 157.77522832 271.80176909 162.36258 275.59375 167.0625 C278.29779161 170.36353781 281.08122857 173.58754701 283.875 176.8125 C288.30677278 181.94373187 292.5579212 187.18254557 296.71435547 192.53833008 C300.39176251 197.26371303 304.17952918 201.88978247 308 206.5 C313.66946847 213.34884699 319.21194822 220.28291015 324.67333984 227.29833984 C326.94008333 230.20581171 329.22086052 233.1022427 331.5 236 C332.41673133 237.16661586 333.33339806 238.33328248 334.25 239.5 C334.70375 240.0775 335.1575 240.655 335.625 241.25 C339.75 246.5 339.75 246.5 341.12451172 248.24951172 C342.04263354 249.41794152 342.96092826 250.58623548 343.87939453 251.75439453 C346.15022369 254.64300506 348.41814946 257.53379548 350.6796875 260.4296875 C356.69828389 268.1280701 362.82139725 275.73492812 368.99609375 283.30859375 C371.43116179 286.29643058 373.84737413 289.29847033 376.25 292.3125 C386.39107607 305.00997233 396.79610852 317.48112674 407.73583984 329.50048828 C409.14520998 331.05635754 410.54709829 332.61907947 411.93725586 334.19213867 C417.8004695 340.80934535 423.93342323 347.1196304 430.18310547 353.3684082 C431.87107855 355.05857346 433.55085724 356.75660834 435.23046875 358.45507812 C441.84294006 365.10173884 448.6248081 371.19714968 456 377 C457.17044064 377.96314977 458.33879211 378.92885108 459.50390625 379.8984375 C470.57385417 388.86184361 482.63659264 395.979409 495 403 C494 406 494 406 491.21875 407.62109375 C489.98159439 408.23150775 488.74179333 408.83657689 487.5 409.4375 C473.35408212 416.64743225 460.77274313 426.40742824 449 437 C448.14011475 437.77303467 447.28022949 438.54606934 446.39428711 439.3425293 C439.33608028 445.72968858 432.51531046 452.32770751 425.7980957 459.0715332 C424.17447771 460.70056572 422.54550397 462.32410728 420.91601562 463.94726562 C415.40011057 469.45929763 410.04235261 475.04680243 405 481 C403.99010725 482.15654492 402.97840618 483.31151347 401.96484375 484.46484375 C394.38828197 493.14239018 387.00594867 501.96499215 379.72314453 510.89013672 C378.04743865 512.94191488 376.36605667 514.98891757 374.68359375 517.03515625 C368.59474484 524.46096015 362.67486718 531.99120725 356.87475586 539.64453125 C352.65791109 545.19010982 348.29214845 550.59789384 343.87280273 555.98266602 C339.99694737 560.72408836 336.25680763 565.55369914 332.5625 570.4375 C327.56645276 577.03612431 322.39004086 583.45696982 317.10107422 589.82250977 C313.39446949 594.28857966 309.75751443 598.79906292 306.1875 603.375 C299.34931929 612.13387964 292.28842202 620.69304027 285.09033203 629.15771484 C282.14019403 632.6324136 279.24331771 636.14457795 276.375 639.6875 C272.74931653 644.14191113 268.97570347 648.42948601 265.109375 652.67578125 C263.25373343 654.72042335 261.43243624 656.78784149 259.625 658.875 C251.39168034 668.28718134 242.84239016 677.27023763 233.92626953 686.03686523 C230.88858623 689.03757233 227.91120478 692.01232408 225.20703125 695.3203125 C223.40258784 697.51119423 221.74670206 699.22439001 219.5625 701 C215.54121105 704.41430194 211.88028517 708.1155796 208.1875 711.875 C203.3492527 716.76821285 198.42837877 721.33699318 193.01953125 725.60546875 C190.69168999 727.45147999 188.40801538 729.32465174 186.13671875 731.23828125 C171.25773528 743.74688515 155.47181044 754.69742137 139 765 C138.34128906 765.41459473 137.68257813 765.82918945 137.00390625 766.25634766 C96.33488068 791.65435546 49.0764695 807.12861399 1 808 C0.17757812 808.02046387 -0.64484375 808.04092773 -1.4921875 808.06201172 C-53.83814428 809.26525275 -106.56653024 794.56409611 -146 759 C-147.33268811 757.87423574 -148.66594374 756.74914264 -150 755.625 C-160.47827753 746.33793718 -169.7467062 736.3050639 -178 725 C-178.40250977 724.45778809 -178.80501953 723.91557617 -179.21972656 723.35693359 C-208.32954498 683.71474016 -222.02256661 633.78632204 -220 585 C-219.93401611 583.40043457 -219.93401611 583.40043457 -219.86669922 581.76855469 C-218.2040072 546.92152396 -208.7528352 510.62460027 -188 482 C-187.36457275 481.11054687 -187.36457275 481.11054687 -186.71630859 480.203125 C-180.04156926 470.89741638 -172.94081449 462.24623043 -165 454 C-164.4225 453.3709375 -163.845 452.741875 -163.25 452.09375 C-143.07541419 430.70868904 -107.35849013 408.27861311 -78 405 C-78 404.34 -78 403.68 -78 403 C-79.86011719 402.64421875 -79.86011719 402.64421875 -81.7578125 402.28125 C-111.79054125 395.57343241 -139.58266764 377.50664496 -162 357 C-162.94230469 356.14148438 -163.88460937 355.28296875 -164.85546875 354.3984375 C-199.49720422 321.30633233 -218.78304341 271.80918098 -220.07080078 224.39306641 C-221.3283979 162.87648782 -201.54885068 105.93559369 -159 61 C-158.1234375 60.06929687 -157.246875 59.13859375 -156.34375 58.1796875 C-115.46144051 15.97471506 -57.47387524 -1.0263192 0 0 Z " fill="#5996F5" transform="translate(374,108)"/>
</svg>
